<?xml version="1.0" encoding="utf-8"?>
<!-- Generator: Adobe Illustrator 26.0.1, SVG Export Plug-In . SVG Version: 6.00 Build 0)  -->
<svg version="1.1" id="Warstwa_1" xmlns="http://www.w3.org/2000/svg" xmlns:xlink="http://www.w3.org/1999/xlink" x="0px" y="0px"
	 viewBox="0 0 851.91 851.91" style="enable-background:new 0 0 851.91 851.91;" xml:space="preserve">
<style type="text/css">
	.st0{fill:#242424;}
	.st1{fill:#74C0FC;}
</style>
<rect x="-0.04" y="-0.04" class="st0" width="852" height="852"/>
<path class="st1" d="M468.92,749.25h-84.93c-1.12,0-2.03-0.91-2.03-2.03V189.77c0-1.12,0.91-2.03,2.03-2.03h84.93
	c1.12,0,2.03,0.91,2.03,2.03v557.45C470.96,748.34,470.05,749.25,468.92,749.25z"/>
<path class="st1" d="M158.96,805.98v-83.05c0-2.2,1.78-3.98,3.98-3.98h526.05c2.2,0,3.98,1.78,3.98,3.98v83.05
	c0,2.2-1.78,3.98-3.98,3.98H162.94C160.74,809.96,158.96,808.18,158.96,805.98z"/>
<path class="st1" d="M159.16,272.02v-81.98c0-1.15,0.93-2.09,2.09-2.09h250.42c1.15,0,2.09,0.93,2.09,2.09v83.83
	c0,1.15-0.93,2.09-2.09,2.09H163.1C160.93,275.96,159.16,274.19,159.16,272.02z"/>
<circle class="st1" cx="425.96" cy="100.96" r="59"/>
</svg>
